<svg width="15" height="15" viewBox="0 0 15 15" fill="none" xmlns="http://www.w3.org/2000/svg">
<g filter="url(#filter0_d_294_697)">
<path d="M7.06055 2.22656H7.93945C8.01758 2.22656 8.05664 2.26562 8.05664 2.34375V12.6562C8.05664 12.7344 8.01758 12.7734 7.93945 12.7734H7.06055C6.98242 12.7734 6.94336 12.7344 6.94336 12.6562V2.34375C6.94336 2.26562 6.98242 2.22656 7.06055 2.22656Z" fill="#B6F500" stroke="#B6F500"/>
<path d="M2.8125 6.94336H12.6562C12.7344 6.94336 12.7734 6.98242 12.7734 7.06055V7.93945C12.7734 8.01758 12.7344 8.05664 12.6562 8.05664H2.34375C2.26562 8.05664 2.22656 8.01758 2.22656 7.93945V7.06055C2.22656 6.98242 2.26562 6.94336 2.34375 6.94336H2.8125Z" fill="#B6F500" stroke="#B6F500"/>
</g>
<defs>
<filter id="filter0_d_294_697" x="0.726562" y="0.726562" width="13.5469" height="13.5469" filterUnits="userSpaceOnUse" color-interpolation-filters="sRGB">
<feFlood flood-opacity="0" result="BackgroundImageFix"/>
<feColorMatrix in="SourceAlpha" type="matrix" values="0 0 0 0 0 0 0 0 0 0 0 0 0 0 0 0 0 0 127 0" result="hardAlpha"/>
<feOffset/>
<feGaussianBlur stdDeviation="0.5"/>
<feComposite in2="hardAlpha" operator="out"/>
<feColorMatrix type="matrix" values="0 0 0 0 0 0 0 0 0 0 0 0 0 0 0 0 0 0 0.25 0"/>
<feBlend mode="normal" in2="BackgroundImageFix" result="effect1_dropShadow_294_697"/>
<feBlend mode="normal" in="SourceGraphic" in2="effect1_dropShadow_294_697" result="shape"/>
</filter>
</defs>
</svg>
