<svg width="114" height="29" viewBox="0 0 114 29" fill="none" xmlns="http://www.w3.org/2000/svg">
<path d="M1.93164 7.73877H7.25488C8.3929 7.73877 9.35498 7.95589 10.1411 8.39014C10.9347 8.82438 11.5299 9.42334 11.9268 10.187C12.3311 10.9507 12.5332 11.8192 12.5332 12.7925C12.5332 13.7583 12.3311 14.623 11.9268 15.3867C11.5299 16.1504 10.9385 16.7531 10.1523 17.1948C9.36621 17.6291 8.40788 17.8462 7.27734 17.8462H3.52637V24.0005H1.93164V7.73877ZM7.20996 16.4087C8.03353 16.4087 8.72607 16.2552 9.2876 15.9482C9.84912 15.6413 10.2684 15.2183 10.5454 14.6792C10.8224 14.1326 10.9609 13.5037 10.9609 12.7925C10.9609 12.0737 10.8224 11.4448 10.5454 10.9058C10.2684 10.3592 9.84538 9.9362 9.27637 9.63672C8.71484 9.32975 8.01855 9.17627 7.1875 9.17627H3.52637V16.4087H7.20996Z" fill="#333333"/>
<rect x="22.35" y="9.5665" width="13.8782" height="6.7" rx="3.35" transform="rotate(90 22.35 9.5665)" stroke="#333333" stroke-width="1.3"/>
<path d="M22.3846 16.5054H15.6154" stroke="#333333" stroke-width="1.3"/>
<ellipse cx="19.13" cy="3.44558" rx="3.44587" ry="3.44558" fill="#B6F500"/>
<path d="M15.6839 3.44416L22.5757 3.44422" stroke="#A8E200"/>
<path d="M26.9316 7.73828H28.5264V22.5625H36.2305V24H26.9316V7.73828ZM39.1504 7.73828H40.7451V22.5625H48.4492V24H39.1504V7.73828ZM58.7812 7.73828L64.5986 21.709H64.7559L70.5508 7.73828H72.4375V24H70.9102V11.04H70.7754L65.3848 24H63.9473L58.5566 11.04H58.4219V24H56.917V7.73828H58.7812ZM74.7959 24L80.7031 7.73828H82.4326L88.3398 24H86.6553L84.9482 19.1709H78.1875L76.4805 24H74.7959ZM84.4429 17.7559L81.624 9.80469H81.5117L78.6929 17.7559H84.4429ZM87.8232 7.73828H99.7051V9.17578H94.584V24H92.9668V9.17578H87.8232V7.73828ZM102.603 7.73828H112.126V9.17578H104.197V15.1504H111.632V16.5654H104.197V22.5625H112.283V24H102.603V7.73828Z" fill="#333333"/>
</svg>
