<svg width="35" height="35" viewBox="0 0 35 35" fill="none" xmlns="http://www.w3.org/2000/svg">
<path d="M17.5 29.1668C14.243 29.1668 11.4844 28.0366 9.22394 25.7762C6.96352 23.5158 5.83331 20.7571 5.83331 17.5002C5.83331 14.2432 6.96352 11.4845 9.22394 9.22412C11.4844 6.9637 14.243 5.8335 17.5 5.8335C19.1771 5.8335 20.7812 6.17985 22.3125 6.87256C23.8437 7.56527 25.1562 8.55572 26.25 9.84391V5.8335H29.1666V16.0418H18.9583V13.1252H25.0833C24.3055 11.7641 23.2422 10.6946 21.8932 9.91683C20.5442 9.13905 19.0798 8.75016 17.5 8.75016C15.0694 8.75016 13.0035 9.60086 11.3021 11.3022C9.60067 13.0036 8.74998 15.0696 8.74998 17.5002C8.74998 19.9307 9.60067 21.9967 11.3021 23.6981C13.0035 25.3995 15.0694 26.2502 17.5 26.2502C19.3715 26.2502 21.0607 25.7154 22.5677 24.646C24.0746 23.5766 25.1319 22.1668 25.7396 20.4168H28.8021C28.1215 22.9932 26.7361 25.0956 24.6458 26.7241C22.5555 28.3526 20.1736 29.1668 17.5 29.1668Z" fill="#B6F500"/>
</svg>
