<svg width="32" height="32" viewBox="0 0 32 32" fill="none" xmlns="http://www.w3.org/2000/svg">
<path d="M12 4.00016V1.3335H20V4.00016H12ZM14.6667 18.6668H17.3333V10.6668H14.6667V18.6668ZM16 29.3335C14.3556 29.3335 12.8056 29.0168 11.35 28.3835C9.89444 27.7502 8.62222 26.8891 7.53333 25.8002C6.44444 24.7113 5.58333 23.4391 4.95 21.9835C4.31667 20.5279 4 18.9779 4 17.3335C4 15.6891 4.31667 14.1391 4.95 12.6835C5.58333 11.2279 6.44444 9.95572 7.53333 8.86683C8.62222 7.77794 9.89444 6.91683 11.35 6.2835C12.8056 5.65016 14.3556 5.3335 16 5.3335C17.3778 5.3335 18.7 5.55572 19.9667 6.00016C21.2333 6.44461 22.4222 7.08905 23.5333 7.9335L25.4 6.06683L27.2667 7.9335L25.4 9.80016C26.2444 10.9113 26.8889 12.1002 27.3333 13.3668C27.7778 14.6335 28 15.9557 28 17.3335C28 18.9779 27.6833 20.5279 27.05 21.9835C26.4167 23.4391 25.5556 24.7113 24.4667 25.8002C23.3778 26.8891 22.1056 27.7502 20.65 28.3835C19.1944 29.0168 17.6444 29.3335 16 29.3335ZM16 26.6668C18.5778 26.6668 20.7778 25.7557 22.6 23.9335C24.4222 22.1113 25.3333 19.9113 25.3333 17.3335C25.3333 14.7557 24.4222 12.5557 22.6 10.7335C20.7778 8.91127 18.5778 8.00016 16 8.00016C13.4222 8.00016 11.2222 8.91127 9.4 10.7335C7.57778 12.5557 6.66667 14.7557 6.66667 17.3335C6.66667 19.9113 7.57778 22.1113 9.4 23.9335C11.2222 25.7557 13.4222 26.6668 16 26.6668Z" fill="#333333"/>
</svg>
