<svg width="32" height="32" viewBox="0 0 32 32" fill="none" xmlns="http://www.w3.org/2000/svg">
<path d="M12 3.99992V1.33325H20V3.99992H12ZM14.6667 18.6666H17.3333V10.6666H14.6667V18.6666ZM16 29.3333C14.3556 29.3333 12.8056 29.0166 11.35 28.3833C9.89444 27.7499 8.62222 26.8888 7.53333 25.7999C6.44444 24.711 5.58333 23.4388 4.95 21.9833C4.31667 20.5277 4 18.9777 4 17.3333C4 15.6888 4.31667 14.1388 4.95 12.6833C5.58333 11.2277 6.44444 9.95547 7.53333 8.86659C8.62222 7.7777 9.89444 6.91659 11.35 6.28325C12.8056 5.64992 14.3556 5.33325 16 5.33325C17.3778 5.33325 18.7 5.55547 19.9667 5.99992C21.2333 6.44436 22.4222 7.08881 23.5333 7.93325L25.4 6.06659L27.2667 7.93325L25.4 9.79992C26.2444 10.911 26.8889 12.0999 27.3333 13.3666C27.7778 14.6333 28 15.9555 28 17.3333C28 18.9777 27.6833 20.5277 27.05 21.9833C26.4167 23.4388 25.5556 24.711 24.4667 25.7999C23.3778 26.8888 22.1056 27.7499 20.65 28.3833C19.1944 29.0166 17.6444 29.3333 16 29.3333ZM16 26.6666C18.5778 26.6666 20.7778 25.7555 22.6 23.9333C24.4222 22.111 25.3333 19.911 25.3333 17.3333C25.3333 14.7555 24.4222 12.5555 22.6 10.7333C20.7778 8.91103 18.5778 7.99992 16 7.99992C13.4222 7.99992 11.2222 8.91103 9.4 10.7333C7.57778 12.5555 6.66667 14.7555 6.66667 17.3333C6.66667 19.911 7.57778 22.111 9.4 23.9333C11.2222 25.7555 13.4222 26.6666 16 26.6666Z" fill="#333333"/>
</svg>
